<?xml version="1.0" encoding="utf-8"?> <!-- Generator: Adobe Illustrator 25.1.0, SVG Export Plug-In . SVG Version: 6.00 Build 0)  --> <svg version="1.1" id="Laag_1" xmlns="http://www.w3.org/2000/svg" xmlns:xlink="http://www.w3.org/1999/xlink" x="0px" y="0px" viewBox="0 0 512 512" style="enable-background:new 0 0 512 512;" xml:space="preserve"> <style type="text/css"> .st0{fill:#222831;} </style> <path class="st0" d="M465,101.4V80c0-33.1-26.9-60-60-60H60C26.9,20,0,46.9,0,80v352c0,33.1,26.9,60,60,60h392c33.1,0,60-26.9,60-60 V160C512,131.4,491.8,107.4,465,101.4z M405,60c11,0,20,9,20,20v20h-90V80c0-7-1.2-13.7-3.4-20H405z M275,60c11,0,20,9,20,20v20h-91 V80c0-7-1.2-13.7-3.4-20H275z M472,432c0,11-9,20-20,20H60c-11,0-20-9-20-20V80c0-11,9-20,20-20h84c11,0,20,9,20,20v60h288 c11,0,20,9,20,20V432z"/> <path class="st0" d="M472,160v272c0,11-9,20-20,20H60c-11,0-20-9-20-20V80c0-11,9-20,20-20h84c11,0,20,9,20,20v60h288 C463,140,472,149,472,160z"/> </svg>